<svg width="17" height="17" viewBox="0 0 17 17" fill="none" xmlns="http://www.w3.org/2000/svg">
<path d="M8.63281 16.3281C7.54427 16.3281 6.51823 16.1198 5.55469 15.7031C4.59635 15.2865 3.75 14.7109 3.01562 13.9766C2.28125 13.2422 1.70573 12.3958 1.28906 11.4375C0.872396 10.474 0.664062 9.44792 0.664062 8.35938C0.664062 7.27083 0.872396 6.2474 1.28906 5.28906C1.70573 4.32552 2.27865 3.47656 3.00781 2.74219C3.74219 2.00781 4.58854 1.43229 5.54688 1.01562C6.51042 0.598958 7.53646 0.390625 8.625 0.390625C9.71354 0.390625 10.7396 0.598958 11.7031 1.01562C12.6667 1.43229 13.5156 2.00781 14.25 2.74219C14.9844 3.47656 15.5599 4.32552 15.9766 5.28906C16.3932 6.2474 16.6016 7.27083 16.6016 8.35938C16.6016 9.44792 16.3932 10.474 15.9766 11.4375C15.5599 12.3958 14.9844 13.2422 14.25 13.9766C13.5156 14.7109 12.6667 15.2865 11.7031 15.7031C10.7448 16.1198 9.72135 16.3281 8.63281 16.3281ZM6.00781 11.6406C6.19531 11.6406 6.35417 11.5781 6.48438 11.4531L8.64062 9.28125L10.8047 11.4531C10.9245 11.5781 11.0781 11.6406 11.2656 11.6406C11.4479 11.6406 11.6016 11.5781 11.7266 11.4531C11.8516 11.3229 11.9141 11.1693 11.9141 10.9922C11.9141 10.7995 11.8516 10.6458 11.7266 10.5312L9.55469 8.36719L11.7344 6.19531C11.8594 6.0651 11.9219 5.91146 11.9219 5.73438C11.9219 5.55729 11.8594 5.40625 11.7344 5.28125C11.6094 5.15625 11.4583 5.09375 11.2812 5.09375C11.1094 5.09375 10.9609 5.15625 10.8359 5.28125L8.64062 7.46094L6.46094 5.28906C6.33073 5.16927 6.17969 5.10938 6.00781 5.10938C5.83073 5.10938 5.67969 5.17188 5.55469 5.29688C5.42969 5.41667 5.36719 5.56771 5.36719 5.75C5.36719 5.92188 5.42969 6.07292 5.55469 6.20312L7.72656 8.36719L5.55469 10.5391C5.42969 10.6641 5.36719 10.8151 5.36719 10.9922C5.36719 11.1693 5.42969 11.3229 5.55469 11.4531C5.67969 11.5781 5.83073 11.6406 6.00781 11.6406Z" fill="#C4C4C4"/>
</svg>
